<svg version="1.1" viewBox="0.0 0.0 960.0 720.0" fill="none" stroke="none" stroke-linecap="square" stroke-miterlimit="10" xmlns:xlink="http://www.w3.org/1999/xlink" xmlns="http://www.w3.org/2000/svg"><clipPath id="p.0"><path d="m0 0l960.0 0l0 720.0l-960.0 0l0 -720.0z" clip-rule="nonzero"/></clipPath><g clip-path="url(#p.0)"><path fill="#000000" fill-opacity="0.0" d="m0 0l960.0 0l0 720.0l-960.0 0z" fill-rule="evenodd"/><path fill="#999999" d="m-788.7523 46.023598l27.52771 180.69711l-14.652649 2.2322083l-9.53894 -62.61537l-22.520935 -26.080994l-25.49347 97.46414l-19.33551 2.9456024l32.115906 -114.868515l-57.60431 -66.13925l19.864197 -3.026146l68.636536 81.23244l-13.651184 -89.60899z" fill-rule="evenodd"/><path fill="#999999" d="m-485.27264 56.237053c-10.909088 -1.6618805 -21.111267 0.5675125 -30.606567 6.6881714c-9.495239 6.120659 -17.638306 16.469116 -24.429138 31.045372c-6.7700806 14.551399 -11.494568 30.619553 -14.173462 48.204468c-2.7039795 17.749252 -2.909729 34.155457 -0.61724854 49.218597c2.2924805 15.063156 7.2505493 27.07109 14.874268 36.02385c7.64447 8.927887 16.846558 14.211395 27.606201 15.85051c7.970093 1.2141571 16.099823 0.04234314 24.38916 -3.5154266c8.293488 -3.5851746 16.715454 -9.518997 25.265839 -17.801514l10.214996 -67.05275l-46.41983 -6.945404l-3.2297363 21.2005l32.204254 4.905945l-5.126251 33.649643c-3.776947 4.048996 -8.958801 7.6177063 -15.545624 10.7061615c-6.5826416 3.0610504 -13.012207 4.11351 -19.288666 3.1573486c-7.222931 -1.1003265 -13.646759 -4.76947 -19.271454 -11.007416c-5.624756 -6.237961 -9.296265 -15.037064 -11.014526 -26.397308c-1.7016602 -11.357727 -1.3256836 -25.089493 1.1279297 -41.195297c1.9904175 -13.06543 5.2316284 -24.973396 9.723633 -35.7239c2.6328125 -6.2412033 5.840088 -11.848373 9.621887 -16.82151c3.7984009 -4.970604 8.366028 -8.745003 13.70282 -11.323219c5.3409424 -2.6055984 11.324005 -3.4037628 17.949188 -2.394493c5.5292664 0.8423233 10.318359 3.1974258 14.36734 7.0653152c4.053131 3.8404999 6.899536 8.5761795 8.539185 14.207054c1.639679 5.6308746 2.5804138 13.17318 2.8222046 22.626923l13.977295 -3.924446c-0.04019165 -12.44989 -1.3026123 -22.73175 -3.7872925 -30.845573c-2.4846802 -8.113831 -6.610382 -14.768028 -12.377075 -19.9626c-5.7459106 -5.219433 -12.57901 -8.432434 -20.499329 -9.639z" fill-rule="evenodd"/><path fill="#999999" d="m-684.6588 280.4567l55.40161 0l0 126.078735l-55.40161 0z" fill-rule="evenodd"/><path fill="#999999" d="m-523.20996 32.997375c0 173.6458 -59.801758 314.46085 -133.61792 314.62976c-73.81616 0.1689148 -133.73431 -140.37218 -133.87793 -314.01764l133.7478 -0.6121063z" fill-rule="evenodd"/><path fill="#999999" d="m-737.9816 397.10855l162.04724 0l0 27.086609l-162.04724 0z" fill-rule="evenodd"/><path fill="#999999" d="m-781.8714 470.14697l11.48822 -45.95276l226.85034 0l11.48822 45.95276z" fill-rule="evenodd"/><path fill="#999999" d="m-265.64566 442.5748l55.401566 0l0 126.078766l-55.401566 0z" fill-rule="evenodd"/><path fill="#999999" d="m-104.19685 195.11548c0 173.64581 -59.801773 314.46088 -133.61792 314.6298c-73.81618 0.1689148 -133.73427 -140.37222 -133.87788 -314.0177l133.74777 -0.6121063z" fill-rule="evenodd"/><path fill="#999999" d="m-318.9685 559.2266l162.04724 0l0 27.08667l-162.04724 0z" fill-rule="evenodd"/><path fill="#999999" d="m-362.85828 632.2651l11.48819 -45.95276l226.8504 0l11.48819 45.95276z" fill-rule="evenodd"/><path fill="#999999" d="m-305.43976 462.26617c-22.12387 6.013031 -49.43228 -14.657562 -70.40137 -53.28897c-20.969086 -38.63141 -31.946014 -88.49414 -28.298676 -128.54654c3.6473389 -40.052383 21.28363 -63.317413 45.46649 -59.977432l2.7387695 16.230515c-18.620148 -5.2356415 -31.646118 13.305817 -33.47284 47.645996c-1.8267212 34.34021 7.8716736 78.35324 24.921967 113.10037c17.050293 34.74716 38.41089 54.029938 54.89041 49.550964z" fill-rule="evenodd"/><path fill="#999999" d="m-169.41049 462.26617c22.12387 6.013031 49.43229 -14.657562 70.40136 -53.28897c20.969078 -38.63141 31.946022 -88.49414 28.298676 -128.54654c-3.6473465 -40.052383 -21.28363 -63.317413 -45.4665 -59.977432l-2.7387543 16.230515c18.620148 -5.2356415 31.646103 13.305817 33.472824 47.645996c1.8267136 34.34021 -7.871666 78.35324 -24.921959 113.10037c-17.050285 34.74716 -38.41091 54.029938 -54.89042 49.550964z" fill-rule="evenodd"/><path fill="#000000" fill-opacity="0.0" d="m-340.5433 249.8166l206.23622 0l0 140.22047l-206.23622 0z" fill-rule="evenodd"/><path fill="#434343" d="m-296.48297 386.8166l0 -108.0l15.0625 0l0 50.9375l24.796875 -50.9375l14.0 0l-21.328125 47.609375l24.796875 60.390625l-14.671875 0l-20.65625 -50.671875l-6.9375 12.546875l0 38.125l-15.0625 0zm89.31622 1.328125q-10.125015 0 -16.20314 -4.328125q-6.0625 -4.328125 -8.796875 -12.59375q-2.71875 -8.265625 -2.71875 -19.875l0 -36.125q0 -11.875 2.453125 -20.203125q2.46875 -8.328125 8.796875 -12.71875q6.34375 -4.40625 17.67189 -4.40625q10.140625 0 16.328125 3.40625q6.203125 3.390625 9.0 10.390625q2.8125 7.0 2.8125 17.65625l0 4.0l-14.140625 0l0 -3.328125q0 -7.0625 -0.9375 -11.53125q-0.921875 -4.46875 -3.796875 -6.671875q-2.859375 -2.203125 -9.0 -2.203125q-6.65625 0 -9.656265 3.078125q-3.0 3.0625 -3.734375 8.328125q-0.734375 5.265625 -0.734375 11.9375l0 40.0q0 7.734375 1.125 12.9375q1.140625 5.1875 4.328125 7.71875q3.2031403 2.53125 9.07814 2.53125q5.859375 0 9.0625 -2.796875q3.203125 -2.796875 4.40625 -8.265625q1.203125 -5.46875 1.203125 -13.59375l0 -7.46875l-13.734375 0l0 -10.671875l27.328125 0l0 53.46875l-9.46875 0l-1.46875 -12.40625q-2.125 6.0 -6.671875 9.875q-4.53125 3.859375 -12.53125 3.859375z" fill-rule="nonzero"/><path fill="#999999" d="m439.18506 406.21423l120.991516 0l0 199.25482l-120.991516 0z" fill-rule="evenodd"/><path fill="#999999" d="m791.77313 15.129518c0 274.3577 -130.53503 496.8719 -291.6997 497.24066c-161.16467 0.36883545 -292.05063 -221.54718 -292.4839 -495.90387l292.09125 -1.3367777z" fill-rule="evenodd"/><path fill="#999999" d="m322.73483 590.5688l353.895 0l0 72.62372l-353.895 0z" fill-rule="evenodd"/><path fill="#999999" d="m226.88245 706.00073l18.155945 -72.62372l509.2848 0l18.155945 72.62372z" fill-rule="evenodd"/><path fill="#999999" d="m352.27872 437.33447c-47.587494 9.35965 -106.23038 -22.188263 -151.82137 -81.674805c-45.590973 -59.48651 -70.43663 -136.87338 -64.32321 -200.34785c6.1134186 -63.474464 42.15425 -102.32529 93.306595 -100.5814l8.70993 32.633354c-38.636368 -3.552475 -64.89557 27.196213 -67.86484 79.46756c-2.9692688 52.27133 17.859116 117.127594 53.8293 167.61588c35.9702 50.48828 80.93175 77.97574 116.1996 71.039154z" fill-rule="evenodd"/><path fill="#999999" d="m649.353 437.33447c47.587524 9.35965 106.23041 -22.188263 151.82135 -81.674805c45.591003 -59.48651 70.436646 -136.87338 64.32324 -200.34785c-6.1134033 -63.474464 -42.154236 -102.32529 -93.30658 -100.5814l-8.709961 32.633354c38.636414 -3.552475 64.89557 27.196213 67.86487 79.46756c2.9692383 52.27133 -17.85913 117.127594 -53.829346 167.61588c-35.970154 50.48828 -80.9317 77.97574 -116.199524 71.039154z" fill-rule="evenodd"/><path fill="#000000" fill-opacity="0.0" d="m275.6161 75.845604l450.3993 0l0 221.60443l-450.3993 0z" fill-rule="evenodd"/><path fill="#434343" d="m384.72775 347.4283l0 -212.26562l29.609375 0l0 100.109375l48.734375 -100.109375l27.53125 0l-41.9375 93.546875l48.75 118.71875l-28.828125 0l-40.625 -99.578125l-13.625 24.625l0 74.953125l-29.609375 0zm175.58188 2.625q-19.921875 0 -31.84375 -8.515625q-11.921875 -8.515625 -17.296844 -24.765625q-5.375 -16.25 -5.375 -39.046875l0 -71.03125q0 -23.3125 4.84375 -39.6875q4.8593445 -16.390625 17.296844 -25.03125q12.453125 -8.65625 34.734375 -8.65625q19.90625 0 32.09375 6.6875q12.1875 6.6875 17.6875 20.453125q5.5 13.75 5.5 34.703125l0 7.875l-27.765625 0l0 -6.5625q0 -13.890625 -1.84375 -22.65625q-1.828125 -8.78125 -7.46875 -13.109375q-5.625 -4.328125 -17.6875 -4.328125q-13.09375 0 -19.0 6.03125q-5.890625 6.03125 -7.34375 16.390625q-1.4375 10.34375 -1.4375 23.4375l0 78.625q0 15.203125 2.21875 25.421875q2.234375 10.21875 8.515625 15.203125q6.296875 4.96875 17.828125 4.96875q11.53125 0 17.8125 -5.5q6.296875 -5.5 8.65625 -16.234375q2.359375 -10.75 2.359375 -26.75l0 -14.671875l-26.984375 0l0 -20.96875l53.71875 0l0 105.09375l-18.609375 0l-2.875 -24.375q-4.203125 11.796875 -13.109375 19.40625q-8.90625 7.59375 -24.625 7.59375z" fill-rule="nonzero"/></g></svg>